<?xml version="1.0" encoding="UTF-8"?>
<svg width="24" height="24" viewBox="0 0 24 24" fill="none" xmlns="http://www.w3.org/2000/svg">
  <!-- AI Brain Symbol -->
  <path d="M12 2C6.48 2 2 6.48 2 12s4.48 10 10 10 10-4.48 10-10S17.52 2 12 2z" fill="#0f6cbf"/>
  
  <!-- Neural Network Pattern -->
  <circle cx="12" cy="8" r="1.5" fill="white"/>
  <circle cx="8" cy="12" r="1.5" fill="white"/>
  <circle cx="16" cy="12" r="1.5" fill="white"/>
  <circle cx="10" cy="16" r="1.5" fill="white"/>
  <circle cx="14" cy="16" r="1.5" fill="white"/>
  
  <!-- Connection Lines -->
  <line x1="12" y1="8" x2="8" y2="12" stroke="white" stroke-width="1" opacity="0.6"/>
  <line x1="12" y1="8" x2="16" y2="12" stroke="white" stroke-width="1" opacity="0.6"/>
  <line x1="8" y1="12" x2="10" y2="16" stroke="white" stroke-width="1" opacity="0.6"/>
  <line x1="16" y1="12" x2="14" y2="16" stroke="white" stroke-width="1" opacity="0.6"/>
  <line x1="8" y1="12" x2="14" y2="16" stroke="white" stroke-width="1" opacity="0.6"/>
  <line x1="16" y1="12" x2="10" y2="16" stroke="white" stroke-width="1" opacity="0.6"/>
</svg>

